<?xml version="1.0" encoding="utf-8"?>
<!-- Generator: Adobe Illustrator 26.0.1, SVG Export Plug-In . SVG Version: 6.00 Build 0)  -->
<svg version="1.1" id="Livello_1" xmlns="http://www.w3.org/2000/svg" xmlns:xlink="http://www.w3.org/1999/xlink" x="0px" y="0px"
	 viewBox="0 0 227.94 309.74" style="fill:red ;enable-background:new 0 0 227.94 309.74;" xml:space="preserve">
<g>
	<g>
		<path d="M29.62,258.23v18.08h4.97v5.34H17.95v-5.34h5.01v-18.08h-5.01v-5.34h16.64v5.34H29.62z"/>
	</g>
	<g>
		<path d="M37.8,267.27c0-8.55,6.66-14.88,15.74-14.88c9.04,0,15.74,6.29,15.74,14.88c0,8.59-6.7,14.88-15.74,14.88
			C44.45,282.14,37.8,275.81,37.8,267.27z M62.53,267.27c0-5.47-3.86-9.21-9-9.21c-5.14,0-9,3.74-9,9.21c0,5.46,3.86,9.2,9,9.2
			C58.67,276.47,62.53,272.73,62.53,267.27z"/>
	</g>
	<g>
		<path d="M94.35,260.94c-2.47-1.44-5.05-2.34-7.93-2.75v23.46h-6.66v-23.46c-2.83,0.41-5.46,1.32-7.97,2.75l-2.26-4.97
			c3.99-2.38,8.71-3.58,13.52-3.58c4.85,0,9.62,1.19,13.56,3.58L94.35,260.94z"/>
		<path d="M109.47,258.23v18.08h4.97v5.34H97.8v-5.34h5.01v-18.08H97.8v-5.34h16.64v5.34H109.47z"/>
		<path d="M145.59,264.8v16.85h-6.66v-16.64c0-4.73-2.38-6.94-6.12-6.94c-3.86,0-6.7,2.34-6.7,7.4v16.19h-6.66v-28.76h6.45v3.49
			c1.97-2.67,5.01-3.99,8.79-3.99C141.52,252.39,145.59,256.79,145.59,264.8z"/>
		<path d="M171.61,266.82h6.08v14.83h-5.01v-1.73c-2.05,1.52-4.68,2.22-7.72,2.22c-7.85,0-14.59-5.18-14.59-14.63
			c0-8.92,6.66-15.12,15.82-15.12c5.05,0,9.25,1.73,12.04,4.97l-4.27,3.94c-2.1-2.22-4.52-3.25-7.44-3.25
			c-5.59,0-9.41,3.74-9.41,9.41c0,6.08,4.07,9.12,8.63,9.12c2.18,0,4.23-0.62,5.88-1.97V266.82z"/>
		<path d="M210,265.91v15.74h-6.66v-6.9h-13.15v6.9h-6.58v-15.74c0-8.75,5.3-13.52,13.19-13.52S210,257.16,210,265.91z
			 M203.34,269.4v-4.11c0-4.89-2.63-7.23-6.58-7.23c-3.99,0-6.57,2.34-6.57,7.23v4.11H203.34z"/>
	</g>
</g>
<g>
	<path d="M198.56,37.04c3.7,11.26-2.43,23.38-13.69,27.07c-11.26,3.7-23.38-2.43-27.07-13.69c-3.7-11.26,2.43-23.38,13.69-27.07
		C182.75,19.66,194.87,25.79,198.56,37.04"/>
	<path d="M210.13,85.62c-2.52-7.68-5.88-14.85-9.93-21.45c-3.35,3.61-7.63,6.45-12.65,8.1c-15.76,5.18-32.74-3.4-37.91-19.17
		c-3.33-10.13-0.97-20.76,5.32-28.44c-22.11-9.81-47.79-11.77-72.58-3.63C29.28,38.48,0.37,95.68,17.81,148.79
		c17.44,53.11,74.64,82.02,127.75,64.58C198.66,195.92,227.58,138.73,210.13,85.62 M185.33,155.95
		c-3.43,29.23-29.9,50.14-59.13,46.72c-29.23-3.43-50.14-29.9-46.72-59.13c3.43-29.23,29.9-50.14,59.13-46.72
		C167.85,100.25,188.76,126.72,185.33,155.95"/>
</g>
</svg>
