<?xml version="1.0" encoding="utf-8"?>
<!-- Generator: Adobe Illustrator 26.0.1, SVG Export Plug-In . SVG Version: 6.00 Build 0)  -->
<svg version="1.1" id="Livello_1" xmlns="http://www.w3.org/2000/svg" xmlns:xlink="http://www.w3.org/1999/xlink" x="0px" y="0px"
	 viewBox="0 0 227.94 84.94" style="enable-background:new 0 0 227.94 84.94;" xml:space="preserve">
<style type="text/css">
	.st0{display:none;}
	.st1{display:inline;}
</style>
<g>
	<g>
		<path d="M26.81,33.43v18.08h4.97v5.34H15.14v-5.34h5.01V33.43h-5.01v-5.34h16.64v5.34H26.81z"/>
	</g>
	<g>
		<path d="M34.99,42.47c0-8.55,6.66-14.88,15.74-14.88c9.04,0,15.74,6.29,15.74,14.88c0,8.59-6.7,14.88-15.74,14.88
			C41.65,57.34,34.99,51.02,34.99,42.47z M59.73,42.47c0-5.47-3.86-9.21-9-9.21c-5.14,0-9,3.74-9,9.21c0,5.46,3.86,9.2,9,9.2
			C55.87,51.67,59.73,47.93,59.73,42.47z"/>
	</g>
	<g>
		<path d="M91.54,36.14c-2.47-1.44-5.05-2.34-7.93-2.75v23.46h-6.66V33.39c-2.83,0.41-5.46,1.32-7.97,2.75l-2.26-4.97
			c3.99-2.38,8.71-3.58,13.52-3.58c4.85,0,9.62,1.19,13.56,3.58L91.54,36.14z"/>
		<path d="M106.67,33.43v18.08h4.97v5.34H95v-5.34h5.01V33.43H95v-5.34h16.64v5.34H106.67z"/>
		<path d="M142.79,40v16.85h-6.66V40.21c0-4.73-2.38-6.94-6.12-6.94c-3.86,0-6.7,2.34-6.7,7.4v16.19h-6.66V28.09h6.45v3.49
			c1.97-2.67,5.01-3.99,8.79-3.99C138.72,27.59,142.79,31.99,142.79,40z"/>
		<path d="M168.8,42.02h6.08v14.83h-5.01v-1.73c-2.05,1.52-4.68,2.22-7.72,2.22c-7.85,0-14.59-5.18-14.59-14.63
			c0-8.92,6.66-15.12,15.82-15.12c5.05,0,9.25,1.73,12.04,4.97l-4.27,3.94c-2.1-2.22-4.52-3.25-7.44-3.25
			c-5.59,0-9.41,3.74-9.41,9.41c0,6.08,4.07,9.12,8.63,9.12c2.18,0,4.23-0.62,5.88-1.97V42.02z"/>
		<path d="M207.19,41.11v15.74h-6.66v-6.9h-13.15v6.9h-6.58V41.11c0-8.75,5.3-13.52,13.19-13.52S207.19,32.36,207.19,41.11z
			 M200.53,44.61V40.5c0-4.89-2.63-7.23-6.58-7.23c-3.99,0-6.57,2.34-6.57,7.23v4.11H200.53z"/>
	</g>
</g>
<g class="st0">
	<path class="st1" d="M148.15-10.8c2.46,7.48-1.62,15.53-9.1,17.99c-7.48,2.46-15.53-1.62-17.99-9.1
		c-2.46-7.48,1.62-15.53,9.09-17.99C137.64-22.35,145.69-18.28,148.15-10.8"/>
	<path class="st1" d="M155.84,21.48c-1.68-5.1-3.91-9.87-6.6-14.25c-2.22,2.4-5.07,4.29-8.4,5.38
		c-10.47,3.44-21.75-2.26-25.19-12.74c-2.21-6.73-0.64-13.8,3.54-18.9c-14.69-6.52-31.76-7.82-48.23-2.41
		c-35.29,11.59-54.5,49.6-42.91,84.89c11.59,35.29,49.6,54.5,84.89,42.91C148.21,94.78,167.43,56.77,155.84,21.48 M139.36,68.22
		c-2.28,19.42-19.87,33.32-39.29,31.04c-19.42-2.28-33.32-19.87-31.04-39.29c2.28-19.42,19.87-33.32,39.29-31.04
		C127.74,31.2,141.64,48.79,139.36,68.22"/>
</g>
</svg>
