<?xml version="1.0" encoding="utf-8"?>
<!-- Generator: Adobe Illustrator 26.0.1, SVG Export Plug-In . SVG Version: 6.00 Build 0)  -->
<svg version="1.1" id="Livello_1" xmlns="http://www.w3.org/2000/svg" xmlns:xlink="http://www.w3.org/1999/xlink" x="0px" y="0px"
	 viewBox="0 0 183.88 196.67" style="enable-background:new 0 0 183.88 196.67;" xml:space="preserve">
<style type="text/css">
	.st0{display:none;}
	.st1{display:inline;}
	.st2{fill:#F0EFEE;}
</style>
<g class="st0">
	<g class="st1">
		<path class="st2" d="M642.92-247.46v18.08h4.97v5.34h-16.64v-5.34h5.01v-18.08h-5.01v-5.34h16.64v5.34H642.92z"/>
	</g>
	<g class="st1">
		<path class="st2" d="M651.1-238.42c0-8.55,6.66-14.88,15.74-14.88c9.04,0,15.74,6.29,15.74,14.88c0,8.59-6.7,14.88-15.74,14.88
			C657.76-223.55,651.1-229.88,651.1-238.42z M675.84-238.42c0-5.47-3.86-9.21-9-9.21c-5.14,0-9,3.74-9,9.21c0,5.46,3.86,9.2,9,9.2
			C671.97-229.22,675.84-232.96,675.84-238.42z"/>
	</g>
	<g class="st1">
		<path class="st2" d="M707.65-244.75c-2.47-1.44-5.05-2.34-7.93-2.75v23.46h-6.66v-23.46c-2.83,0.41-5.46,1.32-7.97,2.75
			l-2.26-4.97c3.99-2.38,8.71-3.58,13.52-3.58c4.85,0,9.62,1.19,13.56,3.58L707.65-244.75z"/>
		<path class="st2" d="M722.77-247.46v18.08h4.97v5.34H711.1v-5.34h5.01v-18.08h-5.01v-5.34h16.64v5.34H722.77z"/>
		<path class="st2" d="M758.9-240.89v16.85h-6.66v-16.64c0-4.73-2.38-6.94-6.12-6.94c-3.86,0-6.7,2.34-6.7,7.4v16.19h-6.66v-28.76
			h6.45v3.49c1.97-2.67,5.01-3.99,8.79-3.99C754.83-253.3,758.9-248.9,758.9-240.89z"/>
		<path class="st2" d="M784.91-238.87h6.08v14.83h-5.01v-1.73c-2.05,1.52-4.68,2.22-7.72,2.22c-7.85,0-14.59-5.18-14.59-14.63
			c0-8.92,6.66-15.12,15.82-15.12c5.05,0,9.25,1.73,12.04,4.97l-4.27,3.94c-2.1-2.22-4.52-3.25-7.44-3.25
			c-5.59,0-9.41,3.74-9.41,9.41c0,6.08,4.07,9.12,8.63,9.12c2.18,0,4.23-0.62,5.88-1.97V-238.87z"/>
		<path class="st2" d="M823.3-239.78v15.74h-6.66v-6.9h-13.15v6.9h-6.58v-15.74c0-8.75,5.3-13.52,13.19-13.52
			S823.3-248.53,823.3-239.78z M816.64-236.29v-4.11c0-4.89-2.63-7.23-6.58-7.23c-3.99,0-6.57,2.34-6.57,7.23v4.11H816.64z"/>
	</g>
</g>
<g>
	<path d="M148.15,45.07c2.46,7.48-1.62,15.53-9.1,17.99c-7.48,2.46-15.53-1.62-17.99-9.1c-2.46-7.48,1.62-15.53,9.09-17.99
		C137.64,33.52,145.69,37.59,148.15,45.07"/>
	<path d="M155.84,77.35c-1.68-5.1-3.91-9.87-6.6-14.25c-2.22,2.4-5.07,4.29-8.4,5.38c-10.47,3.44-21.75-2.26-25.19-12.74
		c-2.21-6.73-0.64-13.8,3.54-18.9c-14.69-6.52-31.76-7.82-48.23-2.41c-35.29,11.59-54.5,49.6-42.91,84.89
		c11.59,35.29,49.6,54.5,84.89,42.91C148.21,150.64,167.43,112.64,155.84,77.35 M139.36,124.08c-2.28,19.42-19.87,33.32-39.29,31.04
		c-19.42-2.28-33.32-19.87-31.04-39.29c2.28-19.42,19.87-33.32,39.29-31.04C127.74,87.07,141.64,104.66,139.36,124.08"/>
</g>
</svg>
