<svg xmlns="http://www.w3.org/2000/svg" viewBox="0 0 155.91 155.91"><g id="Retro"><path d="M77.42,138.46a16.9,16.9,0,0,1-15.2-10.27,23.22,23.22,0,0,1-1.35-8,25,25,0,0,0-8.27-17.6,24.39,24.39,0,0,0-12.19-6.24A37,37,0,0,0,35,95.76a16.53,16.53,0,0,1-2.76-32.7A16.73,16.73,0,0,1,50,71.18a15.11,15.11,0,0,1,2,6.94,32.71,32.71,0,0,0,1,8.29,25.25,25.25,0,0,0,15,16.93,24.48,24.48,0,0,0,17.66.73,25.34,25.34,0,0,0,16.1-15,29.81,29.81,0,0,0,1.86-10.53,15.83,15.83,0,0,1,2.94-8.71,16.32,16.32,0,0,1,11.06-6.9,16.66,16.66,0,0,1,16.39,7.39A16.4,16.4,0,0,1,129.35,93a15.76,15.76,0,0,1-8.65,2.75,28.15,28.15,0,0,0-11.94,2.59A25.35,25.35,0,0,0,94.92,115a33.67,33.67,0,0,0-.93,7.94,16.47,16.47,0,0,1-13.73,15.2C79.32,138.28,78.36,138.35,77.42,138.46Z"/><path d="M94,37.41A16.54,16.54,0,1,1,77.57,20.87,16.51,16.51,0,0,1,94,37.41Z"/><path d="M77.86,57A22.64,22.64,0,1,1,55.23,79.57,22.55,22.55,0,0,1,77.86,57Zm-.61,44.16A21.53,21.53,0,0,0,97,89.56l-3.62-6.4a3.51,3.51,0,0,1-3-.41l-7,5,2.88,5.1a2,2,0,0,1,.33.68,2.39,2.39,0,0,1-.2.75,1.88,1.88,0,0,1-.65-.25,3,3,0,0,1-.46-.73c-1-1.69-1.93-3.39-2.81-5L72.38,92.54Zm4.62-14-9-15.8a29.76,29.76,0,0,0-6.82,4.87,3.36,3.36,0,0,1-.63,4.17l6.19,10.93A42.25,42.25,0,0,0,81.87,87.16Zm8.37-9.49L84.08,66.81a36.38,36.38,0,0,0-10.23,4.12q4.44,7.83,8.9,15.73a44.19,44.19,0,0,0,6.7-4.75C88.88,79.83,89,79.37,90.24,77.67ZM83.35,65.61l-1.2-2.17a7.88,7.88,0,0,1-.6-1.15.72.72,0,0,1,.16-.64.75.75,0,0,1,.67.11,2,2,0,0,1,.41.63c.59,1,1.18,2.06,1.77,3.11,3.17-.61,6.27-1,9.41-.15A21.42,21.42,0,0,0,67.9,60.48l5.27,9.31ZM67,61a20.85,20.85,0,0,0-7.7,7.59,1,1,0,0,0-.11.78c1,1.88,2.08,3.72,3,5.39l3.12.48,7-4.85C70.62,67.27,68.85,64.16,67,61ZM64.67,81.18l-3.2-.45a15.74,15.74,0,0,0-2.82,5c-1,3.3.38,5.68,3.76,6.37a16.38,16.38,0,0,0,5.41.08c.89-.11,1.76-.28,2.8-.45ZM85.1,66.55,91,77l2.9.34a13.67,13.67,0,0,0,2.81-5.4,4.23,4.23,0,0,0-3-5.45C90.93,65.56,88.12,65.92,85.1,66.55ZM60.92,92.78c2.08,4,10.73,8.68,14.93,8.16l-4.67-8.25C67.74,93.44,64.35,93.86,60.92,92.78Zm36.61-4.35c2.71-5.69,2.28-13.24.3-16.5a15.2,15.2,0,0,1-3,6,9,9,0,0,1,.46,2.42,12,12,0,0,1-.88,2.54Zm-36.08-13-2.91-5.13C56,74.42,55.59,82.22,57.45,86a17.61,17.61,0,0,1,3.4-6.26A3.38,3.38,0,0,1,61.45,75.42Zm30.75,2.7a2.07,2.07,0,0,0-2.09,2,2.17,2.17,0,0,0,2.15,2.12,2.12,2.12,0,0,0,2.08-2.07A2.05,2.05,0,0,0,92.2,78.12ZM65.47,78a2,2,0,0,0-2.1-2.11,2.15,2.15,0,0,0-2.06,2.09,2.22,2.22,0,0,0,2.15,2.14A2.08,2.08,0,0,0,65.47,78Z"/></g></svg>