<svg id="Livello_1" data-name="Livello 1" xmlns="http://www.w3.org/2000/svg" viewBox="0 0 1080 1080"><path d="M538.08,803.71h-.16c-30.29-.42-58.52-19.51-70.26-47.49-4.83-11.53-5.5-23.47-6.14-35l-.08-1.43c-1.72-30.4-13.87-56.28-36.13-76.91a107.14,107.14,0,0,0-53.18-27.24,163,163,0,0,0-24-2.7,78,78,0,0,1-47-18.22,75.85,75.85,0,0,1-25.72-46,75,75,0,0,1,12.95-56,76.44,76.44,0,0,1,129.39,6.53c6,10.78,9.14,21.3,9.48,32.17.42,13.67,1,25,4.33,36.39,10.25,35,32.35,59.91,65.67,74,25.3,10.7,51.24,11.77,77.1,3.16,33.36-11.09,57-33.16,70.33-65.59,6.42-15.63,7.71-32.11,8.12-46.16a73.5,73.5,0,0,1,13.64-40.34c12.1-17.37,29.29-28.1,51.08-31.91,28.68-5,60.59,9.38,75.89,34.23,8.57,13.93,12.6,27.44,12.3,41.29-.58,27.27-12.09,48.66-34.18,63.58a73.7,73.7,0,0,1-40.05,12.71c-20.95.51-37.56,4.09-52.27,11.29-30.82,15.07-51.17,39.58-60.49,72.86-3.23,11.51-3.65,23.39-4,34.88C614,748,607.41,764.08,596,777.14a75.81,75.81,0,0,1-44.89,25.06c-2.95.47-5.93.77-8.82,1.07l-4,.42ZM350.56,465.29a70.07,70.07,0,0,0-14.15,1.45c-37.05,7.67-62.14,44.06-55.93,81.13a71.3,71.3,0,0,0,67.85,59.87,167.94,167.94,0,0,1,24.78,2.78,112.36,112.36,0,0,1,55.72,28.53c23.27,21.57,36,48.63,37.78,80.42l.08,1.43c.65,11.62,1.26,22.6,5.75,33.31a73.14,73.14,0,0,0,65.39,44.31c1.29-.15,2.59-.28,3.89-.41,2.81-.28,5.73-.58,8.53-1,32.07-5.08,58.06-33.84,59.18-65.47.4-11.25.85-24,4.24-36.1,9.74-34.76,31-60.37,63.2-76.11,15.41-7.54,32.7-11.29,54.43-11.82a68.42,68.42,0,0,0,37.27-11.83c20.62-13.92,31.35-33.9,31.9-59.39.28-12.82-3.5-25.4-11.53-38.46-14-22.74-44.35-36.43-70.59-31.85-20.38,3.57-36.43,13.58-47.72,29.77a68.35,68.35,0,0,0-12.71,37.53c-.43,14.52-1.77,31.58-8.5,48-13.91,33.88-38.64,56.95-73.5,68.54-27.09,9-54.26,7.9-80.75-3.31-34.82-14.73-57.91-40.75-68.62-77.32-3.77-12.9-4.2-26.65-4.54-37.69-.31-10-3.19-19.76-8.82-29.8A72.18,72.18,0,0,0,350.56,465.29Z"/><path d="M540,421.83a72.25,72.25,0,0,1-51.65-21.46,72.81,72.81,0,0,1,.37-103.19c9.53-9.53,26.2-20.89,51.42-20.89h.12a72.43,72.43,0,0,1,72.6,72.87A71,71,0,0,1,592,400.11a72.57,72.57,0,0,1-52,21.72Zm.14-140.6c-23.54,0-39.06,10.57-47.94,19.44a68.4,68.4,0,0,0-20.16,48c0,37.62,30.51,68.23,68,68.23h0a67.63,67.63,0,0,0,48.44-20.25,66.12,66.12,0,0,0,19.47-47.45v0a67.48,67.48,0,0,0-67.67-67.92Z"/><path d="M540,432.48a96.09,96.09,0,0,1,96.41,94.71c.68,54.57-42.67,98.37-96.39,98.1-57-.28-96.61-45.61-96.37-96.58C443.88,472.05,490.12,432.21,540,432.48Zm-2.62,188a91.6,91.6,0,0,0,84.1-49.31L606,544c-4.92,1.78-9.22.36-12.91-1.7l-29.68,21q6.13,10.86,12.28,21.73a8,8,0,0,1,1.39,2.87,9.66,9.66,0,0,1-.83,3.2c-.94-.33-2.11-.42-2.78-1.05a12.89,12.89,0,0,1-2-3.1c-4.1-7.22-8.19-14.45-11.95-21.09l-43,18.07ZM557,561c-12.84-22.66-25.46-45-38.08-67.25-12,6.53-25.17,15.95-29.07,20.74,3.58,6.48,2.12,12.38-2.68,17.75l26.36,46.53C529,574.9,543.15,568.7,557,561Zm35.63-40.39-26.19-46.23c-11.23,1.82-36.45,12.2-43.59,17.52q18.89,33.38,37.9,67a187.7,187.7,0,0,0,28.54-20.22C586.87,529.79,587.23,527.86,592.66,520.6Zm-29.34-51.35L558.23,460a34.22,34.22,0,0,1-2.56-4.91,2.93,2.93,0,0,1,.7-2.7,3.28,3.28,0,0,1,2.85.46,8.2,8.2,0,0,1,1.73,2.69c2.51,4.39,5,8.79,7.54,13.23,13.48-2.6,26.7-4.41,40.09-.64-15.26-17.42-34.41-27.64-57.25-30.43-18.69-2.29-36.68.48-53.78,9.73L520,487ZM493.87,449.4a89,89,0,0,0-32.75,32.31c-.55.92-.92,2.54-.48,3.35,4.34,8,8.87,15.84,12.9,23l13.27,2,29.69-20.69C509.11,476.33,501.62,463.08,493.87,449.4Zm-10.06,86.14-13.62-1.91c-4.9,6.24-9.53,13.1-12,21.21-4.33,14,1.63,24.17,16,27.1a68.82,68.82,0,0,0,23,.38c3.76-.5,7.49-1.22,11.93-2Q495.83,556.8,483.81,535.54Zm87-62.3L596,517.73l12.35,1.46c5.26-6.56,9.87-14.12,12-23,2.65-11.13-2-19.69-12.76-23.24C595.62,469.05,583.64,470.57,570.8,473.24Zm-103,111.69c8.85,16.82,45.68,37,63.58,34.75-6.64-11.74-13.21-23.35-19.88-35.12C496.89,587.75,482.46,589.54,467.82,584.93Zm155.9-18.51c11.55-24.23,9.7-56.38,1.26-70.28-2.13,10.24-7.53,18.62-12.82,25.62.88,4.14,2.3,7.32,2,10.31-.37,3.45-2.27,6.74-3.77,10.8ZM470.1,511l-12.4-21.86c-10.89,17.59-12.58,50.8-4.66,67,2.77-10.33,8.34-18.73,14.48-26.65C463.8,522.54,464.81,516.48,470.1,511ZM601,522.51a8.87,8.87,0,0,0-8.92,8.71c-.1,4.75,4.29,9.07,9.19,9a9,9,0,0,0,8.85-8.8A8.75,8.75,0,0,0,601,522.51Zm-113.82-.71a8.6,8.6,0,0,0-8.95-9,9.17,9.17,0,0,0-8.78,8.9c0,4.81,4.43,9.22,9.17,9.1A8.85,8.85,0,0,0,487.21,521.8Z"/></svg>
