<svg id="Livello_1" data-name="Livello 1" xmlns="http://www.w3.org/2000/svg" viewBox="0 0 1080 1080"><path d="M537.94,804.29a75.94,75.94,0,0,1-68.31-46.19c-4.88-11.64-5.38-23.67-6.06-35.8-1.78-31.4-14.09-57.74-37.18-79.14a110,110,0,0,0-54.78-28.06,168.31,168.31,0,0,0-24.54-2.75c-33.92-1.43-64.45-25-70.72-62.4-6.72-40.09,20.84-76.85,58.31-84.6,29.83-6.18,63.57,7.09,80,36.51,5.36,9.58,8.85,19.91,9.2,31.17.38,12.53.89,25.07,4.46,37.26,10.54,36,33.05,61.53,67.54,76.12,25.95,11,52.79,12.11,79.41,3.26,34.16-11.36,58.55-33.87,72.35-67.47C653.91,567,655.55,551,656,534.84a71.06,71.06,0,0,1,13.25-39.16c12.11-17.38,28.93-27.4,49.69-31,26.81-4.68,58.5,8.57,73.68,33.24,7.7,12.5,12.3,25.8,12,40.12-.55,26-11.31,47-33.24,61.85a71.21,71.21,0,0,1-38.89,12.35c-18.65.45-36.69,3.31-53.67,11.62-32,15.66-52.63,40.7-62.22,74.93-3.27,11.68-3.74,23.72-4.17,35.7-1.11,31.73-26.64,62.8-61.73,68.35C546.49,803.48,542.2,803.8,537.94,804.29Z"/><path d="M612.65,350c.43,39.82-32.57,74.1-74.29,74.11A74.37,74.37,0,0,1,464,349.5c0-36.16,28.75-73.85,74.62-73.79A73.86,73.86,0,0,1,612.65,350Z"/><path d="M539.94,438c55.92-.06,101.08,44.67,101.78,100,.72,57.62-45,103.85-101.76,103.57-60.16-.3-102-48.16-101.73-102C438.51,479.76,487.31,437.71,539.94,438Zm-2.76,198.52A96.69,96.69,0,0,0,626,584.45L609.7,555.68c-5.2,1.88-9.74.37-13.63-1.8-10.65,7.54-20.94,14.85-31.34,22.22q6.48,11.46,13,22.94a8.55,8.55,0,0,1,1.46,3c.09,1.09-.55,2.25-.87,3.37-1-.35-2.23-.44-2.93-1.1a13.29,13.29,0,0,1-2.09-3.28c-4.33-7.62-8.64-15.25-12.61-22.26l-45.35,19.07ZM558,573.66l-40.2-71c-12.64,6.89-26.56,16.84-30.69,21.9,3.79,6.83,2.25,13.06-2.82,18.73l27.82,49.13C528.4,588.34,543.3,581.79,558,573.66ZM595.57,531l-27.65-48.8c-11.86,1.92-38.48,12.88-46,18.5l40,70.71A198.37,198.37,0,0,0,592,550.08C589.45,540.72,589.83,538.68,595.57,531Zm-31-54.2c-1.67-3-3.52-6.4-5.38-9.77a37,37,0,0,1-2.7-5.18,3.08,3.08,0,0,1,.74-2.85,3.47,3.47,0,0,1,3,.49c.85.62,1.26,1.85,1.83,2.84,2.65,4.63,5.28,9.27,7.95,14,14.24-2.74,28.19-4.65,42.32-.67-16.1-18.4-36.33-29.18-60.43-32.13-19.73-2.42-38.73.5-56.78,10.27l23.68,41.81Zm-73.32-21A94.09,94.09,0,0,0,456.7,490c-.57,1-1,2.69-.5,3.54,4.58,8.41,9.36,16.72,13.62,24.24l14,2.15,31.33-21.84C507.37,484.28,499.46,470.29,491.28,455.85Zm-10.63,90.94-14.37-2c-5.17,6.59-10.06,13.83-12.7,22.39C449,582,455.3,592.68,470.49,595.77a73,73,0,0,0,24.32.41c4-.53,7.91-1.29,12.6-2.07Q493.36,569.24,480.65,546.79ZM572.49,481c9.36,16.53,18.3,32.29,26.62,47l13,1.54c5.56-6.93,10.42-14.91,12.64-24.25,2.79-11.75-2.08-20.78-13.47-24.53C598.7,476.59,586.05,478.2,572.49,481ZM463.78,598.93c9.34,17.75,48.22,39,67.12,36.68l-21-37.08C494.46,601.9,479.23,603.79,463.78,598.93Zm164.58-19.54c12.19-25.58,10.24-59.52,1.33-74.19-2.25,10.8-8,19.65-13.53,27,.92,4.38,2.42,7.73,2.09,10.88-.39,3.65-2.41,7.12-4,11.4ZM466.19,520.92,453.1,497.83c-11.5,18.57-13.28,53.63-4.92,70.74,2.92-10.9,8.8-19.78,15.28-28.14C459.53,533.07,460.6,526.66,466.19,520.92ZM604.41,533a9.37,9.37,0,0,0-9.42,9.2c-.11,5,4.53,9.57,9.7,9.51a9.51,9.51,0,0,0,9.34-9.29A9.23,9.23,0,0,0,604.41,533Zm-120.16-.74a9.09,9.09,0,0,0-9.45-9.51,9.68,9.68,0,0,0-9.27,9.4c0,5.07,4.68,9.73,9.68,9.61A9.35,9.35,0,0,0,484.25,532.29Z"/></svg>
